<svg width="35" height="35" viewBox="0 0 35 35" fill="none" xmlns="http://www.w3.org/2000/svg">
<g filter="url(#filter0_d_159_66)">
<mask id="path-1-inside-1_159_66" fill="white">
<path d="M18.85 9.45H16.15V6.75H18.85M18.85 20.25H16.15V12.15H18.85M17.5 0C15.7272 0 13.9717 0.349188 12.3338 1.02763C10.6959 1.70606 9.20765 2.70047 7.95406 3.95406C5.42232 6.4858 4 9.91958 4 13.5C4 17.0804 5.42232 20.5142 7.95406 23.0459C9.20765 24.2995 10.6959 25.2939 12.3338 25.9724C13.9717 26.6508 15.7272 27 17.5 27C21.0804 27 24.5142 25.5777 27.0459 23.0459C29.5777 20.5142 31 17.0804 31 13.5C31 11.7272 30.6508 9.97167 29.9724 8.33377C29.2939 6.69588 28.2995 5.20765 27.0459 3.95406C25.7924 2.70047 24.3041 1.70606 22.6662 1.02763C21.0283 0.349188 19.2728 0 17.5 0Z"/>
</mask>
<path d="M18.85 9.45H16.15V6.75H18.85M18.85 20.25H16.15V12.15H18.85M17.5 0C15.7272 0 13.9717 0.349188 12.3338 1.02763C10.6959 1.70606 9.20765 2.70047 7.95406 3.95406C5.42232 6.4858 4 9.91958 4 13.5C4 17.0804 5.42232 20.5142 7.95406 23.0459C9.20765 24.2995 10.6959 25.2939 12.3338 25.9724C13.9717 26.6508 15.7272 27 17.5 27C21.0804 27 24.5142 25.5777 27.0459 23.0459C29.5777 20.5142 31 17.0804 31 13.5C31 11.7272 30.6508 9.97167 29.9724 8.33377C29.2939 6.69588 28.2995 5.20765 27.0459 3.95406C25.7924 2.70047 24.3041 1.70606 22.6662 1.02763C21.0283 0.349188 19.2728 0 17.5 0Z" fill="#00F0FF"/>
<path d="M16.15 9.45H14.15C14.15 10.5546 15.0454 11.45 16.15 11.45V9.45ZM16.15 6.75V4.75C15.0454 4.75 14.15 5.64543 14.15 6.75H16.15ZM16.15 20.25H14.15C14.15 21.3546 15.0454 22.25 16.15 22.25V20.25ZM16.15 12.15V10.15C15.0454 10.15 14.15 11.0454 14.15 12.15H16.15ZM4 13.5H2H4ZM17.5 27V29V27ZM18.85 7.45H16.15V11.45H18.85V7.45ZM18.15 9.45V6.75H14.15V9.45H18.15ZM16.15 8.75H18.85V4.75H16.15V8.75ZM18.85 18.25H16.15V22.25H18.85V18.25ZM18.15 20.25V12.15H14.15V20.25H18.15ZM16.15 14.15H18.85V10.15H16.15V14.15ZM17.5 -2C15.4645 -2 13.449 -1.59908 11.5684 -0.820133L13.0991 2.87539C14.4944 2.29746 15.9898 2 17.5 2V-2ZM11.5684 -0.820133C9.68786 -0.0411847 7.97915 1.10054 6.53984 2.53984L9.36827 5.36827C10.4361 4.3004 11.7039 3.45331 13.0991 2.87539L11.5684 -0.820133ZM6.53984 2.53984C3.63303 5.44666 2 9.38914 2 13.5H6C6 10.45 7.2116 7.52494 9.36827 5.36827L6.53984 2.53984ZM2 13.5C2 17.6109 3.63303 21.5533 6.53984 24.4602L9.36827 21.6317C7.2116 19.4751 6 16.55 6 13.5H2ZM6.53984 24.4602C7.97915 25.8995 9.68786 27.0412 11.5684 27.8201L13.0991 24.1246C11.7039 23.5467 10.4361 22.6996 9.36827 21.6317L6.53984 24.4602ZM11.5684 27.8201C13.449 28.5991 15.4645 29 17.5 29V25C15.9898 25 14.4944 24.7025 13.0991 24.1246L11.5684 27.8201ZM17.5 29C21.6109 29 25.5533 27.367 28.4602 24.4602L25.6317 21.6317C23.4751 23.7884 20.55 25 17.5 25V29ZM28.4602 24.4602C31.367 21.5533 33 17.6109 33 13.5H29C29 16.55 27.7884 19.4751 25.6317 21.6317L28.4602 24.4602ZM33 13.5C33 11.4645 32.5991 9.44895 31.8201 7.56841L28.1246 9.09914C28.7025 10.4944 29 11.9898 29 13.5H33ZM31.8201 7.56841C31.0412 5.68786 29.8995 3.97915 28.4602 2.53984L25.6317 5.36827C26.6996 6.43615 27.5467 7.7039 28.1246 9.09914L31.8201 7.56841ZM28.4602 2.53984C27.0208 1.10054 25.3121 -0.0411848 23.4316 -0.820133L21.9009 2.87539C23.2961 3.45331 24.5639 4.3004 25.6317 5.36827L28.4602 2.53984ZM23.4316 -0.820133C21.551 -1.59908 19.5355 -2 17.5 -2V2C19.0102 2 20.5056 2.29746 21.9009 2.87539L23.4316 -0.820133Z" fill="white" mask="url(#path-1-inside-1_159_66)"/>
</g>
<defs>
<filter id="filter0_d_159_66" x="0" y="0" width="35" height="35" filterUnits="userSpaceOnUse" color-interpolation-filters="sRGB">
<feFlood flood-opacity="0" result="BackgroundImageFix"/>
<feColorMatrix in="SourceAlpha" type="matrix" values="0 0 0 0 0 0 0 0 0 0 0 0 0 0 0 0 0 0 127 0" result="hardAlpha"/>
<feOffset dy="4"/>
<feGaussianBlur stdDeviation="2"/>
<feComposite in2="hardAlpha" operator="out"/>
<feColorMatrix type="matrix" values="0 0 0 0 0 0 0 0 0 0 0 0 0 0 0 0 0 0 0.25 0"/>
<feBlend mode="normal" in2="BackgroundImageFix" result="effect1_dropShadow_159_66"/>
<feBlend mode="normal" in="SourceGraphic" in2="effect1_dropShadow_159_66" result="shape"/>
</filter>
</defs>
</svg>
