<svg width="60" height="46" viewBox="0 0 60 46" fill="none" xmlns="http://www.w3.org/2000/svg">
<g clip-path="url(#clip0_159_53)" filter="url(#filter0_d_159_53)">
<path d="M33.055 18.1484C32.9114 18.0027 32.7409 17.8871 32.5533 17.8082C32.3657 17.7294 32.1646 17.6887 31.9615 17.6886C31.7583 17.6886 31.5572 17.7291 31.3695 17.8078C31.1818 17.8866 31.0113 18.002 30.8676 18.1476C30.7239 18.2932 30.6099 18.4661 30.5322 18.6563C30.4544 18.8466 30.4143 19.0505 30.4142 19.2565C30.4141 19.4625 30.4541 19.6664 30.5317 19.8568C30.6094 20.0471 30.7233 20.22 30.8668 20.3657C31.1568 20.6599 31.5502 20.8253 31.9604 20.8255C32.3706 20.8256 32.764 20.6605 33.0542 20.3665C33.3444 20.0725 33.5075 19.6736 33.5076 19.2576C33.5078 18.8416 33.3449 18.4427 33.055 18.1484ZM34.1483 14.8225C34.2909 14.6727 34.4616 14.5532 34.6502 14.4711C34.8389 14.3889 35.0418 14.3456 35.2471 14.3438C35.4525 14.342 35.6561 14.3817 35.8462 14.4605C36.0362 14.5394 36.2089 14.6558 36.354 14.803C36.4992 14.9503 36.6141 15.1253 36.6918 15.3181C36.7696 15.5108 36.8087 15.7173 36.8069 15.9255C36.8051 16.1337 36.7625 16.3395 36.6814 16.5308C36.6004 16.7221 36.4826 16.8951 36.3349 17.0398C36.0432 17.3254 35.6526 17.4835 35.2471 17.4799C34.8417 17.4763 34.4538 17.3114 34.1671 17.0207C33.8804 16.7299 33.7178 16.3366 33.7143 15.9255C33.7107 15.5143 33.8666 15.1182 34.1483 14.8225ZM39.6148 18.1484C39.4721 17.9986 39.3015 17.8792 39.1128 17.797C38.9242 17.7148 38.7212 17.6716 38.5159 17.6697C38.3106 17.6679 38.107 17.7076 37.9169 17.7865C37.7269 17.8653 37.5542 17.9817 37.409 18.129C37.2638 18.2762 37.149 18.4513 37.0712 18.644C36.9935 18.8367 36.9544 19.0432 36.9561 19.2514C36.9579 19.4596 37.0006 19.6654 37.0816 19.8567C37.1627 20.048 37.2805 20.2211 37.4282 20.3657C37.7198 20.6513 38.1105 20.8094 38.5159 20.8058C38.9214 20.8023 39.3092 20.6373 39.5959 20.3466C39.8827 20.0559 40.0453 19.6626 40.0488 19.2514C40.0523 18.8403 39.8965 18.4442 39.6148 18.1484ZM34.1483 21.4744C34.292 21.3288 34.4625 21.2133 34.6502 21.1345C34.8379 21.0558 35.039 21.0153 35.2421 21.0154C35.4452 21.0154 35.6464 21.0561 35.834 21.135C36.0216 21.2139 36.1921 21.3294 36.3357 21.4751C36.4792 21.6208 36.5931 21.7938 36.6708 21.9841C36.7484 22.1744 36.7884 22.3784 36.7883 22.5843C36.7882 22.7903 36.7481 22.9942 36.6703 23.1845C36.5925 23.3748 36.4786 23.5476 36.3349 23.6932C36.0447 23.9872 35.6512 24.1523 35.241 24.1522C34.8308 24.1521 34.4375 23.9867 34.1475 23.6924C33.8575 23.3982 33.6947 22.9992 33.6949 22.5832C33.695 22.1673 33.8581 21.7684 34.1483 21.4744ZM18.4107 20.8252H15.3179V17.689H18.4107V14.5528H21.5034V17.689H24.5962V20.8252H21.5034V23.9614H18.4107V20.8252Z" fill="white"/>
<path fill-rule="evenodd" clip-rule="evenodd" d="M19.9571 8.28027C17.0862 8.28027 14.3329 9.43674 12.3028 11.4953C10.2728 13.5538 9.13232 16.3458 9.13232 19.257C9.13232 22.1682 10.2728 24.9601 12.3028 27.0187C14.3329 29.0772 17.0862 30.2337 19.9571 30.2337H35.421C36.8425 30.2337 38.2501 29.9498 39.5634 29.3981C40.8768 28.8465 42.0701 28.038 43.0752 27.0187C44.0804 25.9994 44.8778 24.7893 45.4217 23.4576C45.9657 22.1258 46.2457 20.6985 46.2457 19.257C46.2457 17.8155 45.9657 16.3881 45.4217 15.0564C44.8778 13.7246 44.0804 12.5146 43.0752 11.4953C42.0701 10.476 40.8768 9.66746 39.5634 9.11582C38.2501 8.56419 36.8425 8.28027 35.421 8.28027H19.9571ZM35.421 11.4165H19.9571C17.9064 11.4165 15.9398 12.2425 14.4897 13.7129C13.0397 15.1833 12.2251 17.1775 12.2251 19.257C12.2251 21.3364 13.0397 23.3307 14.4897 24.801C15.9398 26.2714 17.9064 27.0975 19.9571 27.0975H35.421C37.4716 27.0975 39.4383 26.2714 40.8883 24.801C42.3383 23.3307 43.1529 21.3364 43.1529 19.257C43.1529 17.1775 42.3383 15.1833 40.8883 13.7129C39.4383 12.2425 37.4716 11.4165 35.421 11.4165Z" fill="#00F0FF"/>
</g>
<defs>
<filter id="filter0_d_159_53" x="0.132324" y="-6.56006" width="59.1134" height="59.6343" filterUnits="userSpaceOnUse" color-interpolation-filters="sRGB">
<feFlood flood-opacity="0" result="BackgroundImageFix"/>
<feColorMatrix in="SourceAlpha" type="matrix" values="0 0 0 0 0 0 0 0 0 0 0 0 0 0 0 0 0 0 127 0" result="hardAlpha"/>
<feMorphology radius="7" operator="dilate" in="SourceAlpha" result="effect1_dropShadow_159_53"/>
<feOffset dx="2" dy="4"/>
<feGaussianBlur stdDeviation="2"/>
<feColorMatrix type="matrix" values="0 0 0 0 0 0 0 0 0 0 0 0 0 0 0 0 0 0 0.3 0"/>
<feBlend mode="normal" in2="BackgroundImageFix" result="effect1_dropShadow_159_53"/>
<feBlend mode="normal" in="SourceGraphic" in2="effect1_dropShadow_159_53" result="shape"/>
</filter>
<clipPath id="clip0_159_53">
<rect width="37.1134" height="37.6344" fill="white" transform="translate(9.13232 0.439941)"/>
</clipPath>
</defs>
</svg>
