<svg width="48" height="46" viewBox="0 0 48 46" fill="none" xmlns="http://www.w3.org/2000/svg">
<g filter="url(#filter0_d_159_46)">
<path d="M22.1937 10.8215C22.116 10.7462 22.0126 10.7041 21.9051 10.7041C21.7975 10.7041 21.6941 10.7462 21.6164 10.8215L12.0081 20.1292C11.9673 20.1688 11.9349 20.2163 11.9127 20.269C11.8905 20.3217 11.8792 20.3783 11.8792 20.4356L11.8777 29.1711C11.8777 29.6203 12.0536 30.0511 12.3668 30.3687C12.68 30.6863 13.1048 30.8647 13.5478 30.8647H18.5633C18.7848 30.8647 18.9972 30.7755 19.1538 30.6167C19.3104 30.4579 19.3983 30.2425 19.3983 30.0179V22.8203C19.3983 22.708 19.4423 22.6004 19.5206 22.521C19.5989 22.4416 19.7051 22.3969 19.8159 22.3969H23.9911C24.1019 22.3969 24.2081 22.4416 24.2864 22.521C24.3647 22.6004 24.4086 22.708 24.4086 22.8203V30.0179C24.4086 30.2425 24.4966 30.4579 24.6532 30.6167C24.8098 30.7755 25.0222 30.8647 25.2437 30.8647H30.2571C30.7001 30.8647 31.1249 30.6863 31.4381 30.3687C31.7513 30.0511 31.9272 29.6203 31.9272 29.1711V20.4356C31.9273 20.3783 31.9159 20.3217 31.8938 20.269C31.8716 20.2163 31.8391 20.1688 31.7983 20.1292L22.1937 10.8215Z" fill="#00F0FF"/>
<path d="M34.1636 18.3825L30.2597 14.5953V8.84833C30.2597 8.62375 30.1718 8.40837 30.0152 8.24957C29.8586 8.09077 29.6462 8.00156 29.4247 8.00156H26.9195C26.6981 8.00156 26.4857 8.09077 26.3291 8.24957C26.1725 8.40837 26.0845 8.62375 26.0845 8.84833V10.5419L23.0616 7.61098C22.7787 7.32096 22.3581 7.15479 21.9035 7.15479C21.4505 7.15479 21.0309 7.32096 20.748 7.61151L9.64701 18.3814C9.32238 18.699 9.28167 19.2213 9.57707 19.5653C9.65125 19.6522 9.74208 19.7228 9.84403 19.7729C9.94598 19.823 10.0569 19.8515 10.1701 19.8568C10.2833 19.862 10.3963 19.8439 10.5023 19.8034C10.6084 19.7629 10.7052 19.701 10.7869 19.6214L21.6164 9.12777C21.6941 9.0524 21.7975 9.01033 21.905 9.01033C22.0126 9.01033 22.116 9.0524 22.1937 9.12777L33.0243 19.6214C33.1838 19.7766 33.3975 19.8612 33.6185 19.8569C33.8395 19.8525 34.0498 19.7595 34.2033 19.5981C34.5237 19.2615 34.4971 18.7058 34.1636 18.3825Z" fill="white"/>
</g>
<defs>
<filter id="filter0_d_159_46" x="-0.457336" y="-1.53857" width="48.7216" height="49.0967" filterUnits="userSpaceOnUse" color-interpolation-filters="sRGB">
<feFlood flood-opacity="0" result="BackgroundImageFix"/>
<feColorMatrix in="SourceAlpha" type="matrix" values="0 0 0 0 0 0 0 0 0 0 0 0 0 0 0 0 0 0 127 0" result="hardAlpha"/>
<feMorphology radius="7" operator="dilate" in="SourceAlpha" result="effect1_dropShadow_159_46"/>
<feOffset dx="2" dy="4"/>
<feGaussianBlur stdDeviation="2"/>
<feColorMatrix type="matrix" values="0 0 0 0 0 0 0 0 0 0 0 0 0 0 0 0 0 0 0.3 0"/>
<feBlend mode="normal" in2="BackgroundImageFix" result="effect1_dropShadow_159_46"/>
<feBlend mode="normal" in="SourceGraphic" in2="effect1_dropShadow_159_46" result="shape"/>
</filter>
</defs>
</svg>
