<svg width="52" height="49" viewBox="0 0 52 49" fill="none" xmlns="http://www.w3.org/2000/svg">
<g clip-path="url(#clip0_159_49)" filter="url(#filter0_d_159_49)">
<path d="M14.0334 7.26221C12.7341 7.26221 11.488 7.78559 10.5693 8.71723C9.65054 9.64886 9.1344 10.9124 9.1344 12.2299V22.1654C9.1344 23.483 9.65054 24.7465 10.5693 25.6782C11.488 26.6098 12.7341 27.1332 14.0334 27.1332H30.3633C31.6626 27.1332 32.9086 26.6098 33.8274 25.6782C34.7461 24.7465 35.2622 23.483 35.2622 22.1654V12.2299C35.2622 10.9124 34.7461 9.64886 33.8274 8.71723C32.9086 7.78559 31.6626 7.26221 30.3633 7.26221H14.0334ZM31.1798 10.574C31.3963 10.574 31.604 10.6613 31.7571 10.8165C31.9102 10.9718 31.9963 11.1824 31.9963 11.402V13.0579C31.9963 13.2775 31.9102 13.4881 31.7571 13.6434C31.604 13.7986 31.3963 13.8859 31.1798 13.8859C30.9632 13.8859 30.7555 13.7986 30.6024 13.6434C30.4493 13.4881 30.3633 13.2775 30.3633 13.0579V11.402C30.3633 11.1824 30.4493 10.9718 30.6024 10.8165C30.7555 10.6613 30.9632 10.574 31.1798 10.574ZM30.3633 21.3375C30.3633 21.1179 30.4493 20.9073 30.6024 20.752C30.7555 20.5967 30.9632 20.5095 31.1798 20.5095C31.3963 20.5095 31.604 20.5967 31.7571 20.752C31.9102 20.9073 31.9963 21.1179 31.9963 21.3375V22.9934C31.9963 23.213 31.9102 23.4236 31.7571 23.5788C31.604 23.7341 31.3963 23.8213 31.1798 23.8213C30.9632 23.8213 30.7555 23.7341 30.6024 23.5788C30.4493 23.4236 30.3633 23.213 30.3633 22.9934V21.3375ZM31.1798 15.5418C31.3963 15.5418 31.604 15.629 31.7571 15.7843C31.9102 15.9396 31.9963 16.1501 31.9963 16.3697V18.0256C31.9963 18.2452 31.9102 18.4558 31.7571 18.6111C31.604 18.7664 31.3963 18.8536 31.1798 18.8536C30.9632 18.8536 30.7555 18.7664 30.6024 18.6111C30.4493 18.4558 30.3633 18.2452 30.3633 18.0256V16.3697C30.3633 16.1501 30.4493 15.9396 30.6024 15.7843C30.7555 15.629 30.9632 15.5418 31.1798 15.5418ZM12.4004 11.402C12.4004 11.1824 12.4864 10.9718 12.6395 10.8165C12.7926 10.6613 13.0003 10.574 13.2169 10.574C13.4334 10.574 13.6411 10.6613 13.7942 10.8165C13.9473 10.9718 14.0334 11.1824 14.0334 11.402V13.0579C14.0334 13.2775 13.9473 13.4881 13.7942 13.6434C13.6411 13.7986 13.4334 13.8859 13.2169 13.8859C13.0003 13.8859 12.7926 13.7986 12.6395 13.6434C12.4864 13.4881 12.4004 13.2775 12.4004 13.0579V11.402ZM13.2169 20.5095C13.4334 20.5095 13.6411 20.5967 13.7942 20.752C13.9473 20.9073 14.0334 21.1179 14.0334 21.3375V22.9934C14.0334 23.213 13.9473 23.4236 13.7942 23.5788C13.6411 23.7341 13.4334 23.8213 13.2169 23.8213C13.0003 23.8213 12.7926 23.7341 12.6395 23.5788C12.4864 23.4236 12.4004 23.213 12.4004 22.9934V21.3375C12.4004 21.1179 12.4864 20.9073 12.6395 20.752C12.7926 20.5967 13.0003 20.5095 13.2169 20.5095ZM12.4004 16.3697C12.4004 16.1501 12.4864 15.9396 12.6395 15.7843C12.7926 15.629 13.0003 15.5418 13.2169 15.5418C13.4334 15.5418 13.6411 15.629 13.7942 15.7843C13.9473 15.9396 14.0334 16.1501 14.0334 16.3697V18.0256C14.0334 18.2452 13.9473 18.4558 13.7942 18.6111C13.6411 18.7664 13.4334 18.8536 13.2169 18.8536C13.0003 18.8536 12.7926 18.7664 12.6395 18.6111C12.4864 18.4558 12.4004 18.2452 12.4004 18.0256V16.3697ZM18.9323 14.0945C18.9323 13.2947 19.6835 12.7979 20.2845 13.2003L25.0854 16.4343C25.5917 16.7754 25.5917 17.6199 25.0854 17.9611L20.2845 21.1951C19.6851 21.5975 18.9323 21.1007 18.9323 20.3009V14.0945Z" fill="#00F0FF"/>
<g filter="url(#filter1_d_159_49)">
<path d="M26.9107 17.0343L18.8091 22.1515L18.8279 11.8866L26.9107 17.0343Z" fill="white"/>
</g>
</g>
<defs>
<filter id="filter0_d_159_49" x="-3.13159" y="-6.36133" width="54.6598" height="55.1182" filterUnits="userSpaceOnUse" color-interpolation-filters="sRGB">
<feFlood flood-opacity="0" result="BackgroundImageFix"/>
<feColorMatrix in="SourceAlpha" type="matrix" values="0 0 0 0 0 0 0 0 0 0 0 0 0 0 0 0 0 0 127 0" result="hardAlpha"/>
<feMorphology radius="7" operator="dilate" in="SourceAlpha" result="effect1_dropShadow_159_49"/>
<feOffset dx="2" dy="4"/>
<feGaussianBlur stdDeviation="2"/>
<feColorMatrix type="matrix" values="0 0 0 0 0 0 0 0 0 0 0 0 0 0 0 0 0 0 0.3 0"/>
<feBlend mode="normal" in2="BackgroundImageFix" result="effect1_dropShadow_159_49"/>
<feBlend mode="normal" in="SourceGraphic" in2="effect1_dropShadow_159_49" result="shape"/>
</filter>
<filter id="filter1_d_159_49" x="16.8091" y="11.8867" width="12.1016" height="16.2646" filterUnits="userSpaceOnUse" color-interpolation-filters="sRGB">
<feFlood flood-opacity="0" result="BackgroundImageFix"/>
<feColorMatrix in="SourceAlpha" type="matrix" values="0 0 0 0 0 0 0 0 0 0 0 0 0 0 0 0 0 0 127 0" result="hardAlpha"/>
<feOffset dy="4"/>
<feGaussianBlur stdDeviation="1"/>
<feComposite in2="hardAlpha" operator="out"/>
<feColorMatrix type="matrix" values="0 0 0 0 0 0 0 0 0 0 0 0 0 0 0 0 0 0 0.05 0"/>
<feBlend mode="normal" in2="BackgroundImageFix" result="effect1_dropShadow_159_49"/>
<feBlend mode="normal" in="SourceGraphic" in2="effect1_dropShadow_159_49" result="shape"/>
</filter>
<clipPath id="clip0_159_49">
<rect width="32.6598" height="33.1183" fill="white" transform="translate(5.86841 0.638672)"/>
</clipPath>
</defs>
</svg>
