<svg width="28" height="29" viewBox="0 0 28 29" fill="none" xmlns="http://www.w3.org/2000/svg">
<g clip-path="url(#clip0_159_60)">
<g filter="url(#filter0_d_159_60)">
<path fill-rule="evenodd" clip-rule="evenodd" d="M22.3747 14.2905C21.8172 14.4351 21.244 14.5082 20.6685 14.5081H20.6513V14.8858C20.6513 16.468 20.8968 18.0502 21.41 19.5697L22.0468 21.507H5.51699V21.4861L6.15209 19.5488C6.6487 18.0382 6.90537 16.4572 6.9125 14.8649V11.0338C6.9125 10.0539 7.11848 9.09657 7.50812 8.22105C7.89777 7.32638 8.4522 6.53441 9.17141 5.88866C9.89062 5.22375 10.7334 4.72246 11.6363 4.43178C12.5598 4.11847 13.5244 4.01404 14.4685 4.11847L14.6745 4.1498C14.9867 3.58308 15.3755 3.06341 15.8297 2.6059C15.4367 2.49976 15.0369 2.42125 14.6333 2.37092C13.442 2.2456 12.2302 2.37092 11.0801 2.76603C9.9301 3.14026 8.88303 3.76513 8.00076 4.59888C7.11408 5.41112 6.40736 6.40481 5.92723 7.51437C5.44472 8.6235 5.19287 9.8216 5.18742 11.0338V14.8631C5.18491 16.2648 4.96301 17.6572 4.53 18.9883L3.50354 22.0675L4.32574 23.2128H10.3421C10.3421 24.1283 10.7111 25.023 11.3479 25.6705C11.983 26.3145 12.867 26.6905 13.7716 26.6905C14.6745 26.6905 15.5568 26.3162 16.1936 25.6705C16.8304 25.0247 17.2012 24.1283 17.2012 23.2128H23.2175L24.038 22.0675L23.0321 18.9866C22.5977 17.6492 22.3758 16.2503 22.3747 14.8423V14.2905ZM13.7716 24.9864C13.9976 24.9848 14.221 24.9379 14.429 24.8483C14.637 24.7586 14.8255 24.6281 14.9835 24.4642C15.1455 24.3059 15.273 24.1149 15.3579 23.9036C15.4427 23.6922 15.483 23.4652 15.4761 23.2371H12.0465C12.0465 23.6949 12.2302 24.1335 12.5598 24.466C12.718 24.6294 12.9065 24.7595 13.1145 24.8488C13.3225 24.9381 13.5458 24.9849 13.7716 24.9864Z" fill="#00F0FF"/>
<path d="M20.6685 12.7678C21.3447 12.7678 22.0143 12.6327 22.6391 12.3703C23.2639 12.1079 23.8315 11.7232 24.3097 11.2383C24.7879 10.7535 25.1672 10.1778 25.426 9.54428C25.6848 8.91075 25.818 8.23173 25.818 7.54599C25.818 6.86026 25.6848 6.18124 25.426 5.54771C25.1672 4.91417 24.7879 4.33853 24.3097 3.85364C23.8315 3.36875 23.2639 2.98412 22.6391 2.7217C22.0143 2.45928 21.3447 2.32422 20.6685 2.32422C19.3027 2.32422 17.9929 2.87437 17.0272 3.85364C16.0615 4.83291 15.519 6.16109 15.519 7.54599C15.519 8.93089 16.0615 10.2591 17.0272 11.2383C17.9929 12.2176 19.3027 12.7678 20.6685 12.7678Z" fill="white"/>
</g>
</g>
<defs>
<filter id="filter0_d_159_60" x="-5.49646" y="-4.67578" width="44.3144" height="46.3662" filterUnits="userSpaceOnUse" color-interpolation-filters="sRGB">
<feFlood flood-opacity="0" result="BackgroundImageFix"/>
<feColorMatrix in="SourceAlpha" type="matrix" values="0 0 0 0 0 0 0 0 0 0 0 0 0 0 0 0 0 0 127 0" result="hardAlpha"/>
<feMorphology radius="7" operator="dilate" in="SourceAlpha" result="effect1_dropShadow_159_60"/>
<feOffset dx="2" dy="4"/>
<feGaussianBlur stdDeviation="2"/>
<feColorMatrix type="matrix" values="0 0 0 0 0 0 0 0 0 0 0 0 0 0 0 0 0 0 0.3 0"/>
<feBlend mode="normal" in2="BackgroundImageFix" result="effect1_dropShadow_159_60"/>
<feBlend mode="normal" in="SourceGraphic" in2="effect1_dropShadow_159_60" result="shape"/>
</filter>
<clipPath id="clip0_159_60">
<rect width="27.4639" height="27.8495" fill="white" transform="translate(0.0705566 0.583496)"/>
</clipPath>
</defs>
</svg>
