<svg width="49" height="49" viewBox="0 0 49 49" fill="none" xmlns="http://www.w3.org/2000/svg">
<g filter="url(#filter0_d_159_57)">
<path d="M22.6143 33.9953C15.4975 33.9953 9.74341 28.1605 9.74341 20.9437C9.74341 13.7269 15.4975 7.89209 22.6143 7.89209C29.7312 7.89209 35.4853 13.7269 35.4853 20.9437C35.4853 28.1605 29.6555 33.9953 22.6143 33.9953ZM22.6143 9.42757C16.3303 9.42757 11.2576 14.5714 11.2576 20.9437C11.2576 27.316 16.3303 32.4598 22.6143 32.4598C28.8984 32.4598 33.971 27.316 33.971 20.9437C33.971 14.5714 28.8227 9.42757 22.6143 9.42757Z" fill="#00F0FF"/>
<path d="M15.1946 30.3868L13.8318 29.7726C14.2103 28.8513 15.4217 28.3139 16.7088 27.6997C17.9959 27.0855 19.5858 26.3945 19.5858 25.55V24.3984C19.1316 24.0145 18.3745 23.17 18.223 21.9416C17.8445 21.5577 17.2388 20.8668 17.2388 19.9455C17.2388 19.4081 17.4659 18.9474 17.6174 18.6403C17.4659 18.0261 17.3145 16.8745 17.3145 15.9532C17.3145 12.959 19.3587 10.9629 22.6143 10.9629C23.5228 10.9629 24.6585 11.1932 25.2642 11.8842C26.7027 12.1913 27.9141 13.8803 27.9141 15.9532C27.9141 17.2584 27.687 18.3332 27.5355 18.8706C27.687 19.101 27.8384 19.4848 27.8384 19.9455C27.8384 20.9435 27.3084 21.6345 26.8541 21.9416C26.7027 23.17 26.0213 23.9377 25.567 24.3216V25.55C25.567 26.241 26.9298 26.7784 28.1412 27.239C29.5797 27.7764 31.094 28.3906 31.624 29.619L30.1854 30.1564C29.9583 29.5422 28.7469 29.0816 27.6113 28.6977C25.9456 28.0835 24.0528 27.3926 24.0528 25.6268V23.6306L24.4314 23.4003C24.4314 23.4003 25.3399 22.7861 25.3399 21.5577V21.0203L25.7942 20.79C25.8699 20.79 26.2484 20.5597 26.2484 19.9455C26.2484 19.7919 26.097 19.5616 26.0213 19.4848L25.7185 19.1777L25.8699 18.7939C25.8699 18.7939 26.2484 17.5655 26.2484 16.03C26.2484 14.5713 25.4156 13.4964 24.7342 13.4964H24.28L24.0528 13.1126C24.0528 12.8055 23.5228 12.4984 22.6143 12.4984C20.2673 12.4984 18.8287 13.8035 18.8287 15.9532C18.8287 16.9513 19.2073 18.6403 19.2073 18.6403L19.283 19.0242L18.9802 19.4081C18.9044 19.4081 18.753 19.6384 18.753 19.9455C18.753 20.3293 19.2073 20.79 19.4344 20.9435L19.7373 21.1739V21.5577C19.7373 22.7093 20.7215 23.3235 20.7215 23.4003L21.1001 23.6306V25.6268C21.1001 27.4693 19.1316 28.3906 17.3145 29.1584C16.4817 29.4655 15.346 30.0029 15.1946 30.3868Z" fill="white"/>
</g>
<defs>
<filter id="filter0_d_159_57" x="-5.38922" y="-5.25" width="59.8557" height="60.3872" filterUnits="userSpaceOnUse" color-interpolation-filters="sRGB">
<feFlood flood-opacity="0" result="BackgroundImageFix"/>
<feColorMatrix in="SourceAlpha" type="matrix" values="0 0 0 0 0 0 0 0 0 0 0 0 0 0 0 0 0 0 127 0" result="hardAlpha"/>
<feMorphology radius="7" operator="dilate" in="SourceAlpha" result="effect1_dropShadow_159_57"/>
<feOffset dx="2" dy="4"/>
<feGaussianBlur stdDeviation="2"/>
<feColorMatrix type="matrix" values="0 0 0 0 0 0 0 0 0 0 0 0 0 0 0 0 0 0 0.3 0"/>
<feBlend mode="normal" in2="BackgroundImageFix" result="effect1_dropShadow_159_57"/>
<feBlend mode="normal" in="SourceGraphic" in2="effect1_dropShadow_159_57" result="shape"/>
</filter>
</defs>
</svg>
